0
SECTION
2
HEADER
9
$ACADVER
1
AC1015
0
ENDSEC
0
SECTION
2
ENTITIES
0
LINE
8
0
10
0.0
20
0.0
30
0.0
11
120.0
21
0.0
31
0.0
0
CIRCLE
8
OBJECTS
10
160.0
20
60.0
30
0.0
40
35.0
0
ARC
8
OBJECTS
10
240.0
20
60.0
30
0.0
40
30.0
50
0.0
51
180.0
0
ELLIPSE
8
OBJECTS
10
320.0
20
60.0
30
0.0
11
45.0
21
0.0
31
0.0
40
0.5
0
LWPOLYLINE
8
OBJECTS
90
4
70
1
10
0.0
20
120.0
10
100.0
20
120.0
10
100.0
20
180.0
10
0.0
20
180.0
0
TEXT
8
ANNOTATION
10
20.0
20
220.0
30
0.0
40
12.0
1
DXF sample
0
HATCH
8
OBJECTS
10
320.0
20
150.0
2
SOLID
70
1
91
1
93
4
10
280.0
20
120.0
10
360.0
20
120.0
10
360.0
20
180.0
10
280.0
20
180.0
0
DIMENSION
8
ANNOTATION
10
450.0
20
25.0
11
450.0
21
22.0
12
450.0
22
20.0
13
400.0
23
0.0
14
500.0
24
0.0
70
0
40
12.0
1
120
0
HATCH
8
OBJECTS
10
440.0
20
150.0
2
ANSI31
70
0
41
4.0
52
45.0
91
1
93
4
10
400.0
20
120.0
10
480.0
20
120.0
10
480.0
20
180.0
10
400.0
20
180.0
0
ENDSEC
0
EOF
